<?xml version="1.0" encoding="iso-8859-1"?>
<!-- Generator: Adobe Illustrator 19.0.0, SVG Export Plug-In . SVG Version: 6.00 Build 0)  -->
<svg version="1.1" id="Layer_1" xmlns="http://www.w3.org/2000/svg" xmlns:xlink="http://www.w3.org/1999/xlink" x="0px" y="0px"
	 viewBox="0 0 512.002 512.002" style="enable-background:new 0 0 512.002 512.002;" xml:space="preserve" fill="#B8BBD5">
<g>
	<g>
		<g>
			<path d="M147.231,157.333h8.72v2.028c0,4.386,3.555,7.939,7.939,7.939s7.939-3.554,7.939-7.939v-2.028h8.72
				c4.385,0,7.939-3.555,7.939-7.939c0-4.386-3.555-7.939-7.939-7.939h-33.318c-4.385,0-7.939,3.554-7.939,7.939
				C139.292,153.778,142.846,157.333,147.231,157.333z"/>
			<path d="M177.071,185.764h-26.362c-4.385,0-7.939,3.554-7.939,7.939c0,4.386,3.555,7.939,7.939,7.939h26.362
				c4.385,0,7.939-3.554,7.939-7.939C185.01,189.319,181.455,185.764,177.071,185.764z"/>
			<path d="M488.047,369.658h-8.933V222.006c0-15.976-12.997-28.973-28.973-28.973h-30.356c-2.773-19.122-8.272-39.202-16.05-58.88
				c19.238-9.834,31.676-29.718,31.676-51.81c0-32.089-26.107-58.197-58.196-58.197c-13.629,0-26.799,4.841-37.185,13.46
				c-6.137-5.698-12.419-10.818-18.781-15.25C299.953,7.522,278.001,0,256.001,0c-22,0-43.953,7.522-65.247,22.356
				c-6.362,4.432-12.646,9.552-18.781,15.25c-10.387-8.619-23.556-13.46-37.185-13.46c-32.089,0-58.197,26.107-58.197,58.197
				c0,22.093,12.439,41.976,31.676,51.81c-7.777,19.677-13.277,39.757-16.05,58.88H61.861c-15.976,0-28.973,12.997-28.973,28.973
				V369.66h-8.933c-10.032,0-18.193,8.162-18.193,18.193v11.133c0,10.032,8.161,18.193,18.193,18.193h8.933v79.375
				c0,8.518,6.931,15.449,15.449,15.449h28.684c8.518,0,15.449-6.931,15.449-15.449v-13.651h327.063v13.651
				c0,8.518,6.931,15.449,15.449,15.449h28.684c8.518,0,15.449-6.931,15.449-15.449v-79.375h8.933
				c10.032,0,18.193-8.162,18.193-18.193v-11.133C506.24,377.82,498.078,369.658,488.047,369.658z M424.813,264.762
				c5.334-5.915,8.044-13.555,7.63-21.51c-0.413-7.955-3.899-15.273-9.816-20.606c-0.266-0.24-0.54-0.467-0.812-0.695
				c0.006-0.599,0.033-1.199,0.033-1.794c0-3.681-0.138-7.438-0.385-11.245h28.677c7.221,0,13.095,5.874,13.095,13.095v147.653
				h-125.99v-5.298c34.248-19.205,60.415-49.644,74.154-86.332C415.969,274.028,420.44,269.614,424.813,264.762z M419.53,445.282
				H319.423c10.482-4.628,17.819-15.115,17.819-27.29v-0.814h82.288V445.282z M192.577,445.282H92.47v-28.104h82.288v0.814
				C174.758,430.165,182.095,440.654,192.577,445.282z M190.636,417.991v-61.945c0-7.688,6.254-13.943,13.943-13.943
				s13.943,6.254,13.943,13.943v61.945c0,7.688-6.254,13.943-13.943,13.943S190.636,425.679,190.636,417.991z M234.4,417.991v-0.814
				h43.202v0.814c0,12.175,7.337,22.662,17.819,27.29h-78.84C227.063,440.654,234.4,430.165,234.4,417.991z M234.4,401.299v-15.762
				h43.202v15.762H234.4z M293.48,417.991v-61.945c0-7.688,6.254-13.943,13.943-13.943s13.943,6.254,13.943,13.943v61.945
				c0,7.688-6.254,13.943-13.943,13.943S293.48,425.679,293.48,417.991z M335.762,346.782c-3.905-11.92-15.129-20.557-28.339-20.557
				c-16.444,0-29.821,13.378-29.821,29.821v12.067c-14.251,2.038-28.958,2.037-43.202-0.001v-12.066
				c0-16.443-13.377-29.821-29.821-29.821c-13.21,0-24.434,8.637-28.34,20.557c-11.438-7.159-21.773-15.75-30.78-25.529h221.085
				C357.534,331.032,347.199,339.623,335.762,346.782z M132.724,305.375c-2.21-3.178-4.303-6.444-6.265-9.794
				c9.74,4.854,19.934,8.111,30.646,9.794H132.724z M193.354,305.375c22.161-3.145,42.704-11.319,62.648-19.547
				c19.986,8.242,40.568,16.406,62.67,19.547H193.354z M354.894,305.375c10.712-1.683,20.907-4.94,30.647-9.795
				c-1.962,3.35-4.053,6.616-6.264,9.795H354.894z M416.586,244.075c0.194,3.719-1.073,7.289-3.567,10.055
				c-23.39,25.953-49.584,37.901-80.274,36.64c-25.749-1.049-50.292-11.191-74.049-21.009c-19.364-8.003-37.653-15.56-54.407-17.231
				c-3.705-0.369-7.046-2.159-9.404-5.042c-2.359-2.881-3.454-6.508-3.085-10.214s2.161-7.047,5.043-9.408
				c2.514-2.058,5.596-3.154,8.801-3.154c0.468,0,0.94,0.022,1.412,0.07c20.842,2.079,41.917,10.787,62.301,19.211
				c25.06,10.356,45.801,18.322,65.578,18.861c21.778,0.581,39.992-8.11,57.372-27.393c5.147-5.711,13.98-6.168,19.691-1.024
				C414.763,236.934,416.394,240.356,416.586,244.075z M278.286,230.499c8.579-2.656,17.596-4.81,26.658-5.714
				c7.644-0.764,14.495,4.841,15.257,12.491c0.255,2.56-0.216,5.11-1.303,7.388C306.566,241.784,292.968,236.531,278.286,230.499z
				 M377.215,40.025c23.333,0,42.317,18.984,42.317,42.318c0,15.687-8.624,29.844-22.051,37.159c-1.517-3.311-3.1-6.599-4.74-9.86
				c9.585-5.457,15.878-15.757,15.878-27.3c0-17.315-14.088-31.403-31.403-31.403c-6.816,0-13.343,2.228-18.686,6.184
				c-2.372-2.828-4.787-5.563-7.233-8.211C358.665,43.209,367.789,40.025,377.215,40.025z M392.739,82.342
				c0,5.577-2.966,10.566-7.517,13.307c-3.667-6.403-7.56-12.654-11.677-18.685c-1.705-2.497-3.447-4.941-5.212-7.343
				c2.574-1.796,5.663-2.803,8.884-2.803C385.774,66.818,392.739,73.782,392.739,82.342z M92.47,82.342
				c0-23.334,18.984-42.318,42.318-42.318c9.426,0,18.549,3.184,25.918,8.888c-2.446,2.647-4.86,5.383-7.233,8.211
				c-5.343-3.956-11.87-6.184-18.686-6.184c-17.315,0-31.403,14.088-31.403,31.403c0,11.543,6.293,21.843,15.878,27.3
				c-1.641,3.262-3.223,6.548-4.74,9.86C101.093,112.185,92.47,98.029,92.47,82.342z M143.67,69.621
				c-1.766,2.403-3.507,4.846-5.212,7.343c-4.118,6.031-8.01,12.283-11.678,18.685c-4.551-2.742-7.517-7.732-7.517-13.307
				c0-8.56,6.964-15.524,15.524-15.524C138.007,66.818,141.096,67.824,143.67,69.621z M151.571,85.917
				c30.388-44.51,68.45-70.038,104.429-70.038s74.041,25.528,104.429,70.038c26.98,39.52,44.134,88.53,45.449,129.252
				c-9.193-0.986-18.718,2.287-25.367,9.664c-14.226,15.782-28.165,22.583-45.143,22.152c-0.134-0.003-0.273-0.017-0.408-0.022
				c1.05-3.617,1.424-7.437,1.042-11.263c-1.63-16.36-16.267-28.34-32.633-26.715c-16.988,1.695-33.307,7.106-47.369,12.508
				c-15.36-5.893-31.117-10.888-47.365-12.508c-7.923-0.789-15.685,1.552-21.851,6.598c-6.164,5.046-9.994,12.191-10.785,20.117
				c-0.383,3.845-0.023,7.649,1.018,11.253c-17.492,0.562-31.253-6.282-45.527-22.119c-6.649-7.378-16.174-10.65-25.368-9.665
				C107.437,174.446,124.591,125.437,151.571,85.917z M95.415,244.074c0.193-3.719,1.823-7.14,4.589-9.634
				c2.766-2.492,6.328-3.768,10.058-3.566c3.719,0.194,7.14,1.823,9.634,4.59c19.853,22.025,40.776,30.299,67.375,26.506
				c4.45,3.566,9.835,5.783,15.644,6.362c9.622,0.96,20.502,4.455,32.098,8.912c-17.914,6.94-36.354,12.744-55.554,13.527
				c-30.648,1.262-56.885-10.686-80.278-36.64C96.488,251.366,95.222,247.794,95.415,244.074z M48.766,222.006
				c0-7.221,5.874-13.095,13.095-13.095h28.677c-0.247,3.808-0.385,7.565-0.385,11.245c0,0.595,0.026,1.195,0.033,1.793
				c-0.272,0.229-0.546,0.455-0.812,0.695c-5.916,5.333-9.402,12.651-9.815,20.606c-0.413,7.956,2.297,15.596,7.629,21.51
				c4.374,4.853,8.844,9.267,13.418,13.267c13.737,36.687,39.902,67.125,74.153,86.331v5.298H48.766V222.006z M76.591,496.121
				H48.766v-78.944h27.825V496.121z M23.954,401.3v-0.001c-1.277,0-2.314-1.037-2.314-2.314v-11.133
				c0-1.277,1.037-2.314,2.314-2.314h150.803V401.3H23.954z M419.532,467.021h-0.001H92.47v-5.86h327.063V467.021z M463.235,496.121
				H435.41v-78.944h27.825V496.121z M488.047,401.298H337.243v-15.762h150.802c1.277,0,2.314,1.037,2.314,2.314v11.134h0.001
				C490.361,400.26,489.324,401.298,488.047,401.298z"/>
			<path d="M361.292,185.764h-26.362c-4.385,0-7.939,3.554-7.939,7.939c0,4.386,3.555,7.939,7.939,7.939h26.362
				c4.385,0,7.939-3.554,7.939-7.939C369.232,189.319,365.677,185.764,361.292,185.764z"/>
			<path d="M239.342,189.507h33.318c4.385,0,7.939-3.554,7.939-7.939c0-4.386-3.555-7.939-7.939-7.939h-33.318
				c-4.385,0-7.939,3.554-7.939,7.939C231.402,185.954,234.957,189.507,239.342,189.507z"/>
			<path d="M331.452,157.333h8.72v2.028c0,4.386,3.555,7.939,7.939,7.939s7.939-3.554,7.939-7.939v-2.028h8.72
				c4.385,0,7.939-3.555,7.939-7.939c0-4.386-3.555-7.939-7.939-7.939h-33.318c-4.385,0-7.939,3.554-7.939,7.939
				C323.513,153.778,327.067,157.333,331.452,157.333z"/>
		</g>
	</g>
</g>
<g>
</g>
<g>
</g>
<g>
</g>
<g>
</g>
<g>
</g>
<g>
</g>
<g>
</g>
<g>
</g>
<g>
</g>
<g>
</g>
<g>
</g>
<g>
</g>
<g>
</g>
<g>
</g>
<g>
</g>
</svg>
